# xmcd CD database file
#
# Track frame offsets:
#	150
#	20043
#	39586
#	62876
#	85721
#	109472
#	132351
#	154780
#	175412
#	192487
#	213444
#	234735
#	256786
#	276915
#	298382
#	321449
#	335933
#
# Disc length: 4679 seconds
#
# Revision: 3
# Processed by: cddbd v1.5.2PL0 Copyright (c) Steve Scherf et al.
# Submitted via: CDex 1.70beta2
#
DISCID=16124511
DTITLE=Steve Berry - The Amber Room Disc 4
DYEAR=2003
DGENRE=Audio Book
TTITLE0=The Amber Room Disc 4-01
TTITLE1=The Amber Room Disc 4-02
TTITLE2=The Amber Room Disc 4-03
TTITLE3=The Amber Room Disc 4-04
TTITLE4=The Amber Room Disc 4-05
TTITLE5=The Amber Room Disc 4-06
TTITLE6=The Amber Room Disc 4-07
TTITLE7=The Amber Room Disc 4-08
TTITLE8=The Amber Room Disc 4-09
TTITLE9=The Amber Room Disc 4-10
TTITLE10=The Amber Room Disc 4-11
TTITLE11=The Amber Room Disc 4-12
TTITLE12=The Amber Room Disc 4-13
TTITLE13=The Amber Room Disc 4-14
TTITLE14=The Amber Room Disc 4-15
TTITLE15=The Amber Room Disc 4-16
TTITLE16=The Amber Room Disc 4-17
EXTD=YEAR: 2003
EXTT0=
EXTT1=
EXTT2=
EXTT3=
EXTT4=
EXTT5=
EXTT6=
EXTT7=
EXTT8=
EXTT9=
EXTT10=
EXTT11=
EXTT12=
EXTT13=
EXTT14=
EXTT15=
EXTT16=
PLAYORDER=
